<svg version="1.1" viewBox="0.0 0.0 718.2782152230972 398.745406824147" fill="none" stroke="none" stroke-linecap="square" stroke-miterlimit="10" xmlns:xlink="http://www.w3.org/1999/xlink" xmlns="http://www.w3.org/2000/svg"><clipPath id="p.0"><path d="m0 0l718.2782 0l0 398.7454l-718.2782 0l0 -398.7454z" clip-rule="nonzero"/></clipPath><g clip-path="url(#p.0)"><path fill="#000000" fill-opacity="0.0" d="m0 0l718.2782 0l0 398.7454l-718.2782 0z" fill-rule="evenodd"/><g filter="url(#shadowFilter-p.1)"><use xlink:href="#p.1" transform="matrix(1.0 0.0 0.0 1.0 0.0 2.0)"/></g><defs><filter id="shadowFilter-p.1" filterUnits="userSpaceOnUse"><feGaussianBlur in="SourceAlpha" stdDeviation="2.0" result="blur"/><feComponentTransfer in="blur" color-interpolation-filters="sRGB"><feFuncR type="linear" slope="0" intercept="0.0"/><feFuncG type="linear" slope="0" intercept="0.0"/><feFuncB type="linear" slope="0" intercept="0.0"/><feFuncA type="linear" slope="0.5" intercept="0"/></feComponentTransfer></filter></defs><g id="p.1"><path fill="#ffffff" d="m65.66929 63.62992l96.00001 0l0 96.00001l-96.00001 0z" fill-rule="evenodd"/><path stroke="#000000" stroke-width="4.0" stroke-linejoin="round" stroke-linecap="butt" d="m65.66929 63.62992l96.00001 0l0 96.00001l-96.00001 0z" fill-rule="evenodd"/><path fill="#efefef" d="m134.91322 135.76743l-42.531258 -18.500008l0 -10.234375l42.531258 -18.40625l0 12.0625l-29.671883 11.34375l29.671883 11.75l0 11.984383z" fill-rule="nonzero"/></g><g filter="url(#shadowFilter-p.2)"><use xlink:href="#p.2" transform="matrix(1.0 0.0 0.0 1.0 0.0 2.0)"/></g><defs><filter id="shadowFilter-p.2" filterUnits="userSpaceOnUse"><feGaussianBlur in="SourceAlpha" stdDeviation="2.0" result="blur"/><feComponentTransfer in="blur" color-interpolation-filters="sRGB"><feFuncR type="linear" slope="0" intercept="0.0"/><feFuncG type="linear" slope="0" intercept="0.0"/><feFuncB type="linear" slope="0" intercept="0.0"/><feFuncA type="linear" slope="0.5" intercept="0"/></feComponentTransfer></filter></defs><g id="p.2"><path fill="#ffffff" d="m226.44969 63.62992l96.000015 0l0 96.00001l-96.000015 0z" fill-rule="evenodd"/><path stroke="#000000" stroke-width="4.0" stroke-linejoin="round" stroke-linecap="butt" d="m226.44969 63.62992l96.000015 0l0 96.00001l-96.000015 0z" fill-rule="evenodd"/><path fill="#efefef" d="m304.34702 135.2518l-7.203125 9.1875q-5.28125 -2.578125 -10.15625 -7.109375q-3.765625 3.390625 -8.0 5.0q-4.21875 1.59375 -10.0625 1.59375q-11.59375 0 -17.4375 -6.515625q-4.515625 -5.03125 -4.515625 -11.593758q0 -5.953125 3.546875 -10.71875q3.5625 -4.765625 10.625 -8.28125q-3.171875 -3.765625 -4.78125 -7.171875q-1.609375 -3.40625 -1.609375 -6.4375q0 -5.640625 4.5 -9.546875q4.515625 -3.921875 12.84375 -3.921875q8.046875 0 12.5625 4.109375q4.53125 4.109375 4.53125 10.03125q0 3.765625 -2.25 7.15625q-2.234375 3.375 -9.046875 7.65625l8.640625 11.375q1.515625 -2.703125 2.625 -7.0625l10.734375 2.453125q-1.59375 5.703125 -2.78125 8.359375q-1.1875 2.640625 -2.546875 4.4218826q2.0 1.859375 5.140625 4.078125q3.15625 2.21875 4.640625 2.9375zm-32.375 -33.718758l3.21875 -2.453125q3.546875 -2.75 3.546875 -5.453125q0 -2.296875 -1.71875 -3.890625q-1.703125 -1.609375 -4.625 -1.609375q-2.828125 0 -4.4375 1.421875q-1.609375 1.40625 -1.609375 3.265625q0 2.203125 2.703125 5.328125l2.921875 3.390625zm-4.65625 12.90625q-4.09375 2.078125 -6.125 5.0q-2.03125 2.90625 -2.03125 5.953125q0 3.8593826 2.515625 6.2968826q2.515625 2.421875 6.75 2.421875q2.78125 0 5.359375 -1.09375q2.59375 -1.109375 5.640625 -3.640625l-12.109375 -14.937508z" fill-rule="nonzero"/></g><g filter="url(#shadowFilter-p.3)"><use xlink:href="#p.3" transform="matrix(1.0 0.0 0.0 1.0 0.0 2.0)"/></g><defs><filter id="shadowFilter-p.3" filterUnits="userSpaceOnUse"><feGaussianBlur in="SourceAlpha" stdDeviation="2.0" result="blur"/><feComponentTransfer in="blur" color-interpolation-filters="sRGB"><feFuncR type="linear" slope="0" intercept="0.0"/><feFuncG type="linear" slope="0" intercept="0.0"/><feFuncB type="linear" slope="0" intercept="0.0"/><feFuncA type="linear" slope="0.5" intercept="0"/></feComponentTransfer></filter></defs><g id="p.3"><path fill="#ffffff" d="m387.2301 63.62992l96.0 0l0 96.00001l-96.0 0z" fill-rule="evenodd"/><path stroke="#000000" stroke-width="4.0" stroke-linejoin="round" stroke-linecap="butt" d="m387.2301 63.62992l96.0 0l0 96.00001l-96.0 0z" fill-rule="evenodd"/><path fill="#efefef" d="m435.06067 151.5643l0 -81.32813l9.421875 0l0 81.32813l-9.421875 0z" fill-rule="nonzero"/></g><g filter="url(#shadowFilter-p.4)"><use xlink:href="#p.4" transform="matrix(1.0 0.0 0.0 1.0 0.0 2.0)"/></g><defs><filter id="shadowFilter-p.4" filterUnits="userSpaceOnUse"><feGaussianBlur in="SourceAlpha" stdDeviation="2.0" result="blur"/><feComponentTransfer in="blur" color-interpolation-filters="sRGB"><feFuncR type="linear" slope="0" intercept="0.0"/><feFuncG type="linear" slope="0" intercept="0.0"/><feFuncB type="linear" slope="0" intercept="0.0"/><feFuncA type="linear" slope="0.5" intercept="0"/></feComponentTransfer></filter></defs><g id="p.4"><path fill="#ffffff" d="m548.0105 63.62992l96.0 0l0 96.00001l-96.0 0z" fill-rule="evenodd"/><path stroke="#000000" stroke-width="4.0" stroke-linejoin="round" stroke-linecap="butt" d="m548.0105 63.62992l96.0 0l0 96.00001l-96.0 0z" fill-rule="evenodd"/><path fill="#efefef" d="m574.7232 135.79868l0 -11.968758l29.703125 -11.671875l-29.703125 -11.5625l0 -11.890625l42.578125 18.40625l0 10.15625l-42.578125 18.531258z" fill-rule="nonzero"/></g><g filter="url(#shadowFilter-p.5)"><use xlink:href="#p.5" transform="matrix(1.0 0.0 0.0 1.0 0.0 2.0)"/></g><defs><filter id="shadowFilter-p.5" filterUnits="userSpaceOnUse"><feGaussianBlur in="SourceAlpha" stdDeviation="2.0" result="blur"/><feComponentTransfer in="blur" color-interpolation-filters="sRGB"><feFuncR type="linear" slope="0" intercept="0.0"/><feFuncG type="linear" slope="0" intercept="0.0"/><feFuncB type="linear" slope="0" intercept="0.0"/><feFuncA type="linear" slope="0.5" intercept="0"/></feComponentTransfer></filter></defs><g id="p.5"><path fill="#ffffff" d="m65.67191 224.0l96.00001 0l0 96.0l-96.00001 0z" fill-rule="evenodd"/><path stroke="#000000" stroke-width="4.0" stroke-linejoin="round" stroke-linecap="butt" d="m65.67191 224.0l96.00001 0l0 96.0l-96.00001 0z" fill-rule="evenodd"/><path fill="#efefef" d="m84.77239 303.2l21.203125 -32.375l-19.21875 -29.656265l14.640625 0l12.4375 19.937515l12.1875 -19.937515l14.515633 0l-19.296883 30.125015l21.203133 31.90625l-15.109383 0l-13.75 -21.453125l-13.796875 21.453125l-15.015625 0z" fill-rule="nonzero"/></g><g filter="url(#shadowFilter-p.6)"><use xlink:href="#p.6" transform="matrix(1.0 0.0 0.0 1.0 0.0 2.0)"/></g><defs><filter id="shadowFilter-p.6" filterUnits="userSpaceOnUse"><feGaussianBlur in="SourceAlpha" stdDeviation="2.0" result="blur"/><feComponentTransfer in="blur" color-interpolation-filters="sRGB"><feFuncR type="linear" slope="0" intercept="0.0"/><feFuncG type="linear" slope="0" intercept="0.0"/><feFuncB type="linear" slope="0" intercept="0.0"/><feFuncA type="linear" slope="0.5" intercept="0"/></feComponentTransfer></filter></defs><g id="p.6"><path fill="#ffffff" d="m226.45232 224.0l96.000015 0l0 96.0l-96.000015 0z" fill-rule="evenodd"/><path stroke="#000000" stroke-width="4.0" stroke-linejoin="round" stroke-linecap="butt" d="m226.45232 224.0l96.000015 0l0 96.0l-96.000015 0z" fill-rule="evenodd"/><path fill="#efefef" d="m265.63983 256.5675l0 -17.5625l17.5625 0l0 17.5625l-17.5625 0zm-23.250015 24.3125l0 -16.4375l64.062515 0l0 16.4375l-64.062515 0zm23.250015 25.4375l0 -17.5625l17.5625 0l0 17.5625l-17.5625 0z" fill-rule="nonzero"/></g><g filter="url(#shadowFilter-p.7)"><use xlink:href="#p.7" transform="matrix(1.0 0.0 0.0 1.0 0.0 2.0)"/></g><defs><filter id="shadowFilter-p.7" filterUnits="userSpaceOnUse"><feGaussianBlur in="SourceAlpha" stdDeviation="2.0" result="blur"/><feComponentTransfer in="blur" color-interpolation-filters="sRGB"><feFuncR type="linear" slope="0" intercept="0.0"/><feFuncG type="linear" slope="0" intercept="0.0"/><feFuncB type="linear" slope="0" intercept="0.0"/><feFuncA type="linear" slope="0.5" intercept="0"/></feComponentTransfer></filter></defs><g id="p.7"><path fill="#ffffff" d="m387.23273 224.0l96.0 0l0 96.0l-96.0 0z" fill-rule="evenodd"/><path stroke="#000000" stroke-width="4.0" stroke-linejoin="round" stroke-linecap="butt" d="m387.23273 224.0l96.0 0l0 96.0l-96.0 0z" fill-rule="evenodd"/><path fill="#efefef" d="m425.60773 283.9425l0 -17.5625l34.5 0l0 17.5625l-34.5 0z" fill-rule="nonzero"/></g><g filter="url(#shadowFilter-p.8)"><use xlink:href="#p.8" transform="matrix(1.0 0.0 0.0 1.0 0.0 2.0)"/></g><defs><filter id="shadowFilter-p.8" filterUnits="userSpaceOnUse"><feGaussianBlur in="SourceAlpha" stdDeviation="2.0" result="blur"/><feComponentTransfer in="blur" color-interpolation-filters="sRGB"><feFuncR type="linear" slope="0" intercept="0.0"/><feFuncG type="linear" slope="0" intercept="0.0"/><feFuncB type="linear" slope="0" intercept="0.0"/><feFuncA type="linear" slope="0.5" intercept="0"/></feComponentTransfer></filter></defs><g id="p.8"><path fill="#ffffff" d="m548.0131 224.0l96.0 0l0 96.0l-96.0 0z" fill-rule="evenodd"/><path stroke="#000000" stroke-width="4.0" stroke-linejoin="round" stroke-linecap="butt" d="m548.0131 224.0l96.0 0l0 96.0l-96.0 0z" fill-rule="evenodd"/><path fill="#efefef" d="m587.9506 304.6925l0 -23.8125l-24.0 0l0 -16.4375l24.0 0l0 -23.8125l16.0 0l0 23.8125l24.0625 0l0 16.4375l-24.0625 0l0 23.8125l-16.0 0z" fill-rule="nonzero"/></g><path fill="#000000" fill-opacity="0.0" d="m56.64 38.904198l113.70079 0l0 141.85828l-113.70079 0z" fill-rule="evenodd"/><path fill="#1c4587" d="m122.56068 155.83708q-8.953125 0 -16.3125 -2.9375q-7.359375 -2.953125 -12.640625 -8.59375q-5.265625 -5.640625 -8.15625 -13.921875q-2.875 -8.28125 -2.875 -18.953125q0 -10.671875 3.25 -18.953125q3.25 -8.28125 8.765625 -13.921875q5.53125 -5.640625 12.890625 -8.578125q7.359375 -2.953125 15.703125 -2.953125q5.2656326 0 9.500008 0.75q4.234375 0.734375 7.359375 1.71875q3.125 0.96875 5.078125 1.953125q1.96875 0.984375 2.71875 1.46875l-3.4375 9.8125q-1.109375 -0.734375 -3.203125 -1.59375q-2.078125 -0.859375 -4.71875 -1.71875q-2.625 -0.859375 -5.765625 -1.40625q-3.1250076 -0.546875 -6.3125076 -0.546875q-6.75 0 -12.140625 2.328125q-5.390625 2.328125 -9.203125 6.75q-3.796875 4.40625 -5.828125 10.734375q-2.015625 6.3125 -2.015625 14.15625q0 7.609375 1.78125 13.859375q1.78125 6.25 5.328125 10.734375q3.5625 4.46875 8.890625 6.921875q5.34375 2.453125 12.453125 2.453125q8.218758 0 13.609383 -1.703125q5.40625 -1.71875 8.109375 -3.078125l3.0625 9.8125q-0.859375 0.625 -3.078125 1.546875q-2.203125 0.90625 -5.515625 1.765625q-3.3125 0.859375 -7.734375 1.46875q-4.4062576 0.625 -9.562508 0.625z" fill-rule="nonzero"/><path fill="#000000" fill-opacity="0.0" d="m216.0 38.904198l113.700775 0l0 141.85828l-113.700775 0z" fill-rule="evenodd"/><path fill="#1c4587" d="m294.07538 112.16521l11.890625 0l0 39.75q-1.46875 0.484375 -4.234375 1.09375q-2.75 0.609375 -6.375 1.21875q-3.609375 0.625 -7.90625 1.046875q-4.296875 0.4375 -8.71875 0.4375q-8.953125 0 -16.3125 -2.9375q-7.3593903 -2.953125 -12.64064 -8.59375q-5.265625 -5.640625 -8.15625 -13.859375q-2.875 -8.21875 -2.875 -18.890625q0 -10.671875 3.25 -18.953125q3.25 -8.28125 8.765625 -13.921875q5.5312653 -5.640625 12.95314 -8.578125q7.421875 -2.953125 15.875 -2.953125q5.765625 0 10.234375 0.75q4.484375 0.734375 7.671875 1.71875q3.203125 0.96875 5.21875 1.953125q2.03125 0.984375 2.765625 1.46875l-3.8125 9.9375q-3.546875 -2.328125 -9.4375 -3.859375q-5.890625 -1.53125 -12.015625 -1.53125q-6.5 0 -11.84375 2.328125q-5.328125 2.328125 -9.078125 6.75q-3.7343903 4.40625 -5.8281403 10.734375q-2.078125 6.3125 -2.078125 14.15625q0 7.609375 1.78125 13.859375q1.78125 6.25 5.3906403 10.734375q3.625 4.46875 8.953125 6.921875q5.34375 2.453125 12.578125 2.453125q5.140625 0 8.765625 -0.546875q3.625 -0.546875 5.21875 -1.046875l0 -31.640625z" fill-rule="nonzero"/><path fill="#000000" fill-opacity="0.0" d="m378.24 38.904198l113.700806 0l0 141.85828l-113.700806 0z" fill-rule="evenodd"/><path fill="#1c4587" d="m448.63998 118.41521q1.96875 2.453125 4.96875 6.453125q3.015625 3.984375 6.203125 8.828125q3.1875 4.84375 6.3125 10.125q3.125 5.265625 5.328125 10.171875l-13.0 0q-2.453125 -4.65625 -5.34375 -9.4375q-2.875 -4.796875 -5.8125 -9.140625q-2.9375 -4.359375 -5.828125 -8.15625q-2.875 -3.8125 -5.21875 -6.625q-1.59375 0.125 -3.25 0.125q-1.65625 0 -3.359375 0l-10.671875 0l0 33.234375l-11.90625 0l0 -83.78125q5.03125 -1.21875 11.21875 -1.640625q6.203125 -0.4375 11.359375 -0.4375q17.90625 0 27.28125 6.75q9.390625 6.734375 9.390625 20.109375q0 8.46875 -4.484375 14.484375q-4.46875 6.0 -13.1875 8.9375zm-18.03125 -39.859375q-7.59375 0 -11.640625 0.375l0 32.015625l8.453125 0q6.140625 0 11.046875 -0.609375q4.90625 -0.625 8.265625 -2.34375q3.375 -1.71875 5.21875 -4.84375q1.84375 -3.125 1.84375 -8.28125q0 -4.78125 -1.84375 -7.96875q-1.84375 -3.1875 -4.96875 -5.03125q-3.125 -1.84375 -7.359375 -2.578125q-4.234375 -0.734375 -9.015625 -0.734375z" fill-rule="nonzero"/><path fill="#000000" fill-opacity="0.0" d="m539.52 38.904198l113.700745 0l0 141.85828l-113.700745 0z" fill-rule="evenodd"/><path fill="#1c4587" d="m623.0536 153.99333q-2.09375 -5.515625 -3.9375 -10.84375q-1.828125 -5.34375 -3.796875 -10.859375l-38.515625 0l-7.71875 21.703125l-12.390625 0q4.90625 -13.5 9.1875 -24.953125q4.296875 -11.46875 8.40625 -21.765625q4.109375 -10.3125 8.15625 -19.6875q4.046875 -9.390625 8.46875 -18.59375l10.921875 0q4.40625 9.203125 8.453125 18.59375q4.046875 9.375 8.15625 19.6875q4.109375 10.296875 8.40625 21.765625q4.296875 11.453125 9.203125 24.953125l-13.0 0zm-11.171875 -31.515625q-3.921875 -10.671875 -7.78125 -20.671875q-3.859375 -10.0 -8.03125 -19.203125q-4.296875 9.203125 -8.171875 19.203125q-3.859375 10.0 -7.65625 20.671875l31.640625 0z" fill-rule="nonzero"/><path fill="#000000" fill-opacity="0.0" d="m211.2 197.88321l113.70079 0l0 141.85825l-113.70079 0z" fill-rule="evenodd"/><path fill="#1c4587" d="m268.8875 301.1911q-1.21875 -2.9375 -3.25 -7.46875q-2.015625 -4.546875 -4.34375 -9.8125q-2.328125 -5.28125 -4.96875 -10.859375q-2.6406403 -5.578125 -4.9687653 -10.546875q-2.328125 -4.96875 -4.359375 -8.89064q-2.015625 -3.9375 -3.25 -6.015625q-1.34375 14.468765 -2.203125 31.343765q-0.859375 16.859375 -1.46875 34.03125l-11.65625 0q0.484375 -11.046875 1.09375 -22.265625q0.625 -11.21875 1.421875 -22.078125q0.796875 -10.859375 1.71875 -21.156265q0.921875 -10.296875 2.015625 -19.5l10.4375 0q3.3125 5.390625 7.109375 12.75q3.7968903 7.359375 7.5937653 15.406265q3.8125 8.03125 7.359375 16.0625q3.5625 8.03125 6.515625 14.65625q2.9375 -6.625 6.484375 -14.65625q3.5625 -8.03125 7.359375 -16.0625q3.8125 -8.04689 7.609375 -15.406265q3.8125 -7.359375 7.125 -12.75l10.421875 0q4.171875 41.093765 6.25 85.000015l-11.640625 0q-0.625 -17.171875 -1.484375 -34.03125q-0.859375 -16.875 -2.203125 -31.343765q-1.21875 2.078125 -3.25 6.015625q-2.03125 3.9218903 -4.359375 8.89064q-2.328125 4.96875 -4.96875 10.546875q-2.625 5.578125 -4.96875 10.859375q-2.328125 5.265625 -4.359375 9.8125q-2.015625 4.53125 -3.234375 7.46875l-9.578125 0z" fill-rule="nonzero"/><path fill="#000000" fill-opacity="0.0" d="m379.23273 197.88321l113.700775 0l0 141.85825l-113.700775 0z" fill-rule="evenodd"/><path fill="#1c4587" d="m411.6116 312.97235l0 -85.000015l51.890625 0l0 10.171875l-39.984375 0l0 25.281265l35.5625 0l0 9.921875l-35.5625 0l0 29.4375l43.046875 0l0 10.1875l-54.953125 0z" fill-rule="nonzero"/><path fill="#000000" fill-opacity="0.0" d="m161.6693 111.62992l64.7874 0" fill-rule="evenodd"/><path stroke="#000000" stroke-width="4.0" stroke-linejoin="round" stroke-linecap="butt" d="m161.6693 111.62992l64.7874 0" fill-rule="evenodd"/><path fill="#000000" fill-opacity="0.0" d="m322.4497 111.62992l64.787384 0" fill-rule="evenodd"/><path stroke="#000000" stroke-width="4.0" stroke-linejoin="round" stroke-linecap="butt" d="m322.4497 111.62992l64.787384 0" fill-rule="evenodd"/><path fill="#000000" fill-opacity="0.0" d="m483.2301 111.62992l64.787415 0" fill-rule="evenodd"/><path stroke="#000000" stroke-width="4.0" stroke-linejoin="round" stroke-linecap="butt" d="m483.2301 111.62992l64.787415 0" fill-rule="evenodd"/><path fill="#000000" fill-opacity="0.0" d="m596.0105 159.62993l0 64.377945" fill-rule="evenodd"/><path stroke="#000000" stroke-width="4.0" stroke-linejoin="round" stroke-linecap="butt" d="m596.0105 159.62993l0 64.377945" fill-rule="evenodd"/><path fill="#000000" fill-opacity="0.0" d="m435.2301 159.62993l0 64.377945" fill-rule="evenodd"/><path stroke="#000000" stroke-width="4.0" stroke-linejoin="round" stroke-linecap="butt" d="m435.2301 159.62993l0 64.377945" fill-rule="evenodd"/><path fill="#000000" fill-opacity="0.0" d="m483.23273 272.0l64.787415 0" fill-rule="evenodd"/><path stroke="#000000" stroke-width="4.0" stroke-linejoin="round" stroke-linecap="butt" d="m483.23273 272.0l64.787415 0" fill-rule="evenodd"/><path fill="#000000" fill-opacity="0.0" d="m322.45233 272.0l64.787384 0" fill-rule="evenodd"/><path stroke="#000000" stroke-width="4.0" stroke-linejoin="round" stroke-linecap="butt" d="m322.45233 272.0l64.787384 0" fill-rule="evenodd"/><path fill="#000000" fill-opacity="0.0" d="m274.4497 159.62993l0 64.377945" fill-rule="evenodd"/><path stroke="#000000" stroke-width="4.0" stroke-linejoin="round" stroke-linecap="butt" d="m274.4497 159.62993l0 64.377945" fill-rule="evenodd"/><path fill="#000000" fill-opacity="0.0" d="m113.66929 159.62993l0 64.377945" fill-rule="evenodd"/><path stroke="#000000" stroke-width="4.0" stroke-linejoin="round" stroke-linecap="butt" d="m113.66929 159.62993l0 64.377945" fill-rule="evenodd"/><path fill="#000000" fill-opacity="0.0" d="m161.67192 272.0l64.7874 0" fill-rule="evenodd"/><path stroke="#000000" stroke-width="4.0" stroke-linejoin="round" stroke-linecap="butt" d="m161.67192 272.0l64.7874 0" fill-rule="evenodd"/><path fill="#000000" fill-opacity="0.0" d="m1.6692914 111.62992l64.78741 0" fill-rule="evenodd"/><path stroke="#000000" stroke-width="4.0" stroke-linejoin="round" stroke-linecap="butt" d="m1.6692914 111.62992l64.78741 0" fill-rule="evenodd"/><path fill="#000000" fill-opacity="0.0" d="m1.671916 272.0l64.78741 0" fill-rule="evenodd"/><path stroke="#000000" stroke-width="4.0" stroke-linejoin="round" stroke-linecap="butt" d="m1.671916 272.0l64.78741 0" fill-rule="evenodd"/><path fill="#000000" fill-opacity="0.0" d="m596.0105 -0.37007874l0 64.37795" fill-rule="evenodd"/><path stroke="#000000" stroke-width="4.0" stroke-linejoin="round" stroke-linecap="butt" d="m596.0105 -0.37007874l0 64.37795" fill-rule="evenodd"/><path fill="#000000" fill-opacity="0.0" d="m435.2301 -0.37007874l0 64.37795" fill-rule="evenodd"/><path stroke="#000000" stroke-width="4.0" stroke-linejoin="round" stroke-linecap="butt" d="m435.2301 -0.37007874l0 64.37795" fill-rule="evenodd"/><path fill="#000000" fill-opacity="0.0" d="m274.4497 -0.37007874l0 64.37795" fill-rule="evenodd"/><path stroke="#000000" stroke-width="4.0" stroke-linejoin="round" stroke-linecap="butt" d="m274.4497 -0.37007874l0 64.37795" fill-rule="evenodd"/><path fill="#000000" fill-opacity="0.0" d="m113.66929 -0.37007874l0 64.37795" fill-rule="evenodd"/><path stroke="#000000" stroke-width="4.0" stroke-linejoin="round" stroke-linecap="butt" d="m113.66929 -0.37007874l0 64.37795" fill-rule="evenodd"/><path fill="#000000" fill-opacity="0.0" d="m596.0105 319.6299l0 64.37796" fill-rule="evenodd"/><path stroke="#000000" stroke-width="4.0" stroke-linejoin="round" stroke-linecap="butt" d="m596.0105 319.6299l0 64.37796" fill-rule="evenodd"/><path fill="#000000" fill-opacity="0.0" d="m435.2301 319.6299l0 64.37796" fill-rule="evenodd"/><path stroke="#000000" stroke-width="4.0" stroke-linejoin="round" stroke-linecap="butt" d="m435.2301 319.6299l0 64.37796" fill-rule="evenodd"/><path fill="#000000" fill-opacity="0.0" d="m274.4497 319.6299l0 64.37796" fill-rule="evenodd"/><path stroke="#000000" stroke-width="4.0" stroke-linejoin="round" stroke-linecap="butt" d="m274.4497 319.6299l0 64.37796" fill-rule="evenodd"/><path fill="#000000" fill-opacity="0.0" d="m113.66929 319.6299l0 64.37796" fill-rule="evenodd"/><path stroke="#000000" stroke-width="4.0" stroke-linejoin="round" stroke-linecap="butt" d="m113.66929 319.6299l0 64.37796" fill-rule="evenodd"/><path fill="#000000" fill-opacity="0.0" d="m643.2301 111.62992l64.787415 0" fill-rule="evenodd"/><path stroke="#000000" stroke-width="4.0" stroke-linejoin="round" stroke-linecap="butt" d="m643.2301 111.62992l64.787415 0" fill-rule="evenodd"/><path fill="#000000" fill-opacity="0.0" d="m643.2327 272.0l64.787415 0" fill-rule="evenodd"/><path stroke="#000000" stroke-width="4.0" stroke-linejoin="round" stroke-linecap="butt" d="m643.2327 272.0l64.787415 0" fill-rule="evenodd"/></g></svg>